<svg xmlns="http://www.w3.org/2000/svg" xmlns:xlink="http://www.w3.org/1999/xlink" xml:space="preserve" version="1.1" style="shape-rendering:geometricPrecision;text-rendering:geometricPrecision;image-rendering:optimizeQuality;" viewBox="0 0 8180 10225" x="0px" y="0px" fill-rule="evenodd" clip-rule="evenodd"><defs><style type="text/css">
   
    .fil0 {fill:black;fill-rule:nonzero}
   
  </style></defs><g><path class="fil0" d="M6982 1198c-1597,-1597 -4187,-1597 -5784,0 -1597,1597 -1597,4187 0,5784 1597,1598 4187,1598 5784,0 1598,-1597 1598,-4187 0,-5784zm-1200 4188c0,-309 387,-309 387,0l0 1223c0,46 -37,84 -83,84l-3991 0c-71,0 -110,-83 -64,-137l2097 -2466 -2093 -2461c-53,-58 -10,-141 60,-141l3991 0c46,0 83,37 83,83l0 1323c0,309 -387,309 -387,0 0,-528 -432,-961 -961,-961l-1465 0 1484 1839c25,31 26,76 -1,107l-1650 1935 2176 0c238,0 417,-192 417,-428z"/></g><text x="0" y="8195" fill="#000000" font-size="5px" font-weight="bold" font-family="'Helvetica Neue', Helvetica, Arial-Unicode, Arial, Sans-serif">Created by sandi</text><text x="0" y="8200" fill="#000000" font-size="5px" font-weight="bold" font-family="'Helvetica Neue', Helvetica, Arial-Unicode, Arial, Sans-serif">from the Noun Project</text></svg>